[ConversionWorker] Logging FFmpeg output to: ffmpeg_logs\ffmpeg_conversion_高冷_02_wav_20250525_171936.log\n[ConversionWorker] Getting duration with command: ffprobe -v error -show_entries format=duration -of default=noprint_wrappers=1:nokey=1 Z:\Story\高冷\高冷 02.wav\n[ConversionWorker] Duration for 高冷 02.wav: 1924536 ms\n[ConversionWorker] Starting FFmpeg for 高冷 02.wav: ffmpeg -i Z:\Story\高冷\高冷 02.wav -b:a 256k -vn -y -loglevel error -stats -progress pipe:1 Z:\Story\高冷\高冷 02.mp3\n[ConversionWorker] FFmpeg process started. PID: 28916\n[STDOUT RAW] bitrate= 150.2kbits/s\n[STDOUT RAW] total_size=51404\n[STDOUT RAW] out_time_us=2737958\n[STDOUT RAW] out_time_ms=2737958\n[STDOUT RAW] out_time=00:00:02.737958\n[STDOUT RAW] dup_frames=0\n[STDOUT RAW] drop_frames=0\n[STDOUT RAW] speed=5.27x\n[STDOUT RAW] progress=continue\n[STDERR RAW] size=      50KiB time=00:00:02.73 bitrate= 150.2kbits/s speed=5.27x\n[STDOUT RAW] bitrate= 156.1kbits/s\n[STDOUT RAW] total_size=133484\n[STDOUT RAW] out_time_us=6841958\n[STDOUT RAW] out_time_ms=6841958\n[STDOUT RAW] out_time=00:00:06.841958\n[STDOUT RAW] dup_frames=0\n[STDOUT RAW] drop_frames=0\n[STDOUT RAW] speed=6.65x\n[STDOUT RAW] progress=continue\n[STDERR RAW] size=     130KiB time=00:00:06.84 bitrate= 156.1kbits/s speed=6.65x\n[STDOUT RAW] bitrate= 157.5kbits/s\n[STDOUT RAW] total_size=212204\n[STDOUT RAW] out_time_us=10777958\n[STDOUT RAW] out_time_ms=10777958\n[STDOUT RAW] out_time=00:00:10.777958\n[STDOUT RAW] dup_frames=0\n[STDOUT RAW] drop_frames=0\n[STDOUT RAW] speed=7.01x\n[STDOUT RAW] progress=continue\n[STDERR RAW] size=     207KiB time=00:00:10.77 bitrate= 157.5kbits/s speed=7.01x\n[STDOUT RAW] bitrate= 115.8kbits/s\n[STDOUT RAW] total_size=524288\n[STDOUT RAW] out_time_us=36217958\n[STDOUT RAW] out_time_ms=36217958\n[STDOUT RAW] out_time=00:00:36.217958\n[STDOUT RAW] dup_frames=0\n[STDOUT RAW] drop_frames=0\n[STDOUT RAW] speed=17.5x\n[STDOUT RAW] progress=continue\n[STDERR RAW] size=     512KiB time=00:00:36.21 bitrate= 115.8kbits/s speed=17.5x\n[STDOUT RAW] bitrate= 151.9kbits/s\n[STDOUT RAW] total_size=2097152\n[STDOUT RAW] out_time_us=110449958\n[STDOUT RAW] out_time_ms=110449958\n[STDOUT RAW] out_time=00:01:50.449958\n[STDOUT RAW] dup_frames=0\n[STDOUT RAW] drop_frames=0\n[STDOUT RAW] speed=42.9x\n[STDOUT RAW] progress=continue\n[STDERR RAW] size=    2048KiB time=00:01:50.44 bitrate= 151.9kbits/s speed=42.9x\n[STDOUT RAW] bitrate= 148.5kbits/s\n[STDOUT RAW] total_size=3407872\n[STDOUT RAW] out_time_us=183625958\n[STDOUT RAW] out_time_ms=183625958\n[STDOUT RAW] out_time=00:03:03.625958\n[STDOUT RAW] dup_frames=0\n[STDOUT RAW] drop_frames=0\n[STDOUT RAW] speed=59.3x\n[STDOUT RAW] progress=continue\n[STDERR RAW] size=    3328KiB time=00:03:03.62 bitrate= 148.5kbits/s speed=59.3x\n[STDOUT RAW] bitrate= 152.4kbits/s\n[STDOUT RAW] total_size=4980736\n[STDOUT RAW] out_time_us=261529958\n[STDOUT RAW] out_time_ms=261529958\n[STDOUT RAW] out_time=00:04:21.529958\n[STDOUT RAW] dup_frames=0\n[STDOUT RAW] drop_frames=0\n[STDOUT RAW] speed=72.4x\n[STDOUT RAW] progress=continue\n[STDERR RAW] size=    4864KiB time=00:04:21.52 bitrate= 152.4kbits/s speed=72.4x\n[STDOUT RAW] bitrate= 155.0kbits/s\n[STDOUT RAW] total_size=6553600\n[STDOUT RAW] out_time_us=338161958\n[STDOUT RAW] out_time_ms=338161958\n[STDOUT RAW] out_time=00:05:38.161958\n[STDOUT RAW] dup_frames=0\n[STDOUT RAW] drop_frames=0\n[STDOUT RAW] speed=82.1x\n[STDOUT RAW] progress=continue\n[STDERR RAW] size=    6400KiB time=00:05:38.16 bitrate= 155.0kbits/s speed=82.1x\n[STDOUT RAW] bitrate= 157.8kbits/s\n[STDOUT RAW] total_size=8126464\n[STDOUT RAW] out_time_us=411985958\n[STDOUT RAW] out_time_ms=411985958\n[STDOUT RAW] out_time=00:06:51.985958\n[STDOUT RAW] dup_frames=0\n[STDOUT RAW] drop_frames=0\n[STDOUT RAW] speed=88.7x\n[STDOUT RAW] progress=continue\n[STDERR RAW] size=    7936KiB time=00:06:51.98 bitrate= 157.8kbits/s speed=88.7x\n[STDOUT RAW] bitrate= 158.5kbits/s\n[STDOUT RAW] total_size=9699328\n[STDOUT RAW] out_time_us=489697958\n[STDOUT RAW] out_time_ms=489697958\n[STDOUT RAW] out_time=00:08:09.697958\n[STDOUT RAW] dup_frames=0\n[STDOUT RAW] drop_frames=0\n[STDOUT RAW] speed=  95x\n[STDOUT RAW] progress=continue\n[STDERR RAW] size=    9472KiB time=00:08:09.69 bitrate= 158.5kbits/s speed=  95x\n[STDOUT RAW] bitrate= 159.6kbits/s\n[STDOUT RAW] total_size=11272192\n[STDOUT RAW] out_time_us=564937958\n[STDOUT RAW] out_time_ms=564937958\n[STDOUT RAW] out_time=00:09:24.937958\n[STDOUT RAW] dup_frames=0\n[STDOUT RAW] drop_frames=0\n[STDOUT RAW] speed=99.7x\n[STDOUT RAW] progress=continue\n[STDERR RAW] size=   11008KiB time=00:09:24.93 bitrate= 159.6kbits/s speed=99.7x\n[STDOUT RAW] bitrate= 156.8kbits/s\n[STDOUT RAW] total_size=12582912\n[STDOUT RAW] out_time_us=641809958\n[STDOUT RAW] out_time_ms=641809958\n[STDOUT RAW] out_time=00:10:41.809958\n[STDOUT RAW] dup_frames=0\n[STDOUT RAW] drop_frames=0\n[STDOUT RAW] speed= 104x\n[STDOUT RAW] progress=continue\n[STDERR RAW] size=   12288KiB time=00:10:41.80 bitrate= 156.8kbits/s speed= 104x\n[STDOUT RAW] bitrate= 158.1kbits/s\n[STDOUT RAW] total_size=14155776\n[STDOUT RAW] out_time_us=716281958\n[STDOUT RAW] out_time_ms=716281958\n[STDOUT RAW] out_time=00:11:56.281958\n[STDOUT RAW] dup_frames=0\n[STDOUT RAW] drop_frames=0\n[STDOUT RAW] speed= 107x\n[STDOUT RAW] progress=continue\n[STDERR RAW] size=   13824KiB time=00:11:56.28 bitrate= 158.1kbits/s speed= 107x\n[STDOUT RAW] bitrate= 158.5kbits/s\n[STDOUT RAW] total_size=15728640\n[STDOUT RAW] out_time_us=794089958\n[STDOUT RAW] out_time_ms=794089958\n[STDOUT RAW] out_time=00:13:14.089958\n[STDOUT RAW] dup_frames=0\n[STDOUT RAW] drop_frames=0\n[STDOUT RAW] speed= 110x\n[STDOUT RAW] progress=continue\n[STDERR RAW] size=   15360KiB time=00:13:14.08 bitrate= 158.5kbits/s speed= 110x\n[STDOUT RAW] bitrate= 158.2kbits/s\n[STDOUT RAW] total_size=17301504\n[STDOUT RAW] out_time_us=874849958\n[STDOUT RAW] out_time_ms=874849958\n[STDOUT RAW] out_time=00:14:34.849958\n[STDOUT RAW] dup_frames=0\n[STDOUT RAW] drop_frames=0\n[STDOUT RAW] speed= 113x\n[STDOUT RAW] progress=continue\n[STDERR RAW] size=   16896KiB time=00:14:34.84 bitrate= 158.2kbits/s speed= 113x\n[STDOUT RAW] bitrate= 159.3kbits/s\n[STDOUT RAW] total_size=18874368\n[STDOUT RAW] out_time_us=947881958\n[STDOUT RAW] out_time_ms=947881958\n[STDOUT RAW] out_time=00:15:47.881958\n[STDOUT RAW] dup_frames=0\n[STDOUT RAW] drop_frames=0\n[STDOUT RAW] speed= 115x\n[STDOUT RAW] progress=continue\n[STDERR RAW] size=   18432KiB time=00:15:47.88 bitrate= 159.3kbits/s speed= 115x\n[STDOUT RAW] bitrate= 158.1kbits/s\n[STDOUT RAW] total_size=20185088\n[STDOUT RAW] out_time_us=1021417958\n[STDOUT RAW] out_time_ms=1021417958\n[STDOUT RAW] out_time=00:17:01.417958\n[STDOUT RAW] dup_frames=0\n[STDOUT RAW] drop_frames=0\n[STDOUT RAW] speed= 116x\n[STDOUT RAW] progress=continue\n[STDERR RAW] size=   19712KiB time=00:17:01.41 bitrate= 158.1kbits/s speed= 116x\n[STDOUT RAW] bitrate= 158.1kbits/s\n[STDOUT RAW] total_size=21495808\n[STDOUT RAW] out_time_us=1087417958\n[STDOUT RAW] out_time_ms=1087417958\n[STDOUT RAW] out_time=00:18:07.417958\n[STDOUT RAW] dup_frames=0\n[STDOUT RAW] drop_frames=0\n[STDOUT RAW] speed= 117x\n[STDOUT RAW] progress=continue\n[STDERR RAW] size=   20992KiB time=00:18:07.41 bitrate= 158.1kbits/s speed= 117x\n[STDOUT RAW] bitrate= 158.5kbits/s\n[STDOUT RAW] total_size=22806528\n[STDOUT RAW] out_time_us=1151377958\n[STDOUT RAW] out_time_ms=1151377958\n[STDOUT RAW] out_time=00:19:11.377958\n[STDOUT RAW] dup_frames=0\n[STDOUT RAW] drop_frames=0\n[STDOUT RAW] speed= 118x\n[STDOUT RAW] progress=continue\n[STDERR RAW] size=   22272KiB time=00:19:11.37 bitrate= 158.5kbits/s speed= 118x\n[STDOUT RAW] bitrate= 159.8kbits/s\n[STDOUT RAW] total_size=24379392\n[STDOUT RAW] out_time_us=1220377958\n[STDOUT RAW] out_time_ms=1220377958\n[STDOUT RAW] out_time=00:20:20.377958\n[STDOUT RAW] dup_frames=0\n[STDOUT RAW] drop_frames=0\n[STDOUT RAW] speed= 118x\n[STDOUT RAW] progress=continue\n[STDERR RAW] size=   23808KiB time=00:20:20.37 bitrate= 159.8kbits/s speed= 118x\n[STDOUT RAW] bitrate= 159.4kbits/s\n[STDOUT RAW] total_size=25690112\n[STDOUT RAW] out_time_us=1289593958\n[STDOUT RAW] out_time_ms=1289593958\n[STDOUT RAW] out_time=00:21:29.593958\n[STDOUT RAW] dup_frames=0\n[STDOUT RAW] drop_frames=0\n[STDOUT RAW] speed= 119x\n[STDOUT RAW] progress=continue\n[STDERR RAW] size=   25088KiB time=00:21:29.59 bitrate= 159.4kbits/s speed= 119x\n[STDOUT RAW] bitrate= 158.8kbits/s\n[STDOUT RAW] total_size=27000832\n[STDOUT RAW] out_time_us=1360177958\n[STDOUT RAW] out_time_ms=1360177958\n[STDOUT RAW] out_time=00:22:40.177958\n[STDOUT RAW] dup_frames=0\n[STDOUT RAW] drop_frames=0\n[STDOUT RAW] speed= 120x\n[STDOUT RAW] progress=continue\n[STDERR RAW] size=   26368KiB time=00:22:40.17 bitrate= 158.8kbits/s speed= 120x\n[STDOUT RAW] bitrate= 159.3kbits/s\n[STDOUT RAW] total_size=28573696\n[STDOUT RAW] out_time_us=1434745958\n[STDOUT RAW] out_time_ms=1434745958\n[STDOUT RAW] out_time=00:23:54.745958\n[STDOUT RAW] dup_frames=0\n[STDOUT RAW] drop_frames=0\n[STDOUT RAW] speed= 121x\n[STDOUT RAW] progress=continue\n[STDERR RAW] size=   27904KiB time=00:23:54.74 bitrate= 159.3kbits/s speed= 121x\n[STDOUT RAW] bitrate= 158.6kbits/s\n[STDOUT RAW] total_size=29884416\n[STDOUT RAW] out_time_us=1507465958\n[STDOUT RAW] out_time_ms=1507465958\n[STDOUT RAW] out_time=00:25:07.465958\n[STDOUT RAW] dup_frames=0\n[STDOUT RAW] drop_frames=0\n[STDOUT RAW] speed= 122x\n[STDOUT RAW] progress=continue\n[STDERR RAW] size=   29184KiB time=00:25:07.46 bitrate= 158.6kbits/s speed= 122x\n[STDOUT RAW] bitrate= 159.6kbits/s\n[STDOUT RAW] total_size=31457280\n[STDOUT RAW] out_time_us=1577281958\n[STDOUT RAW] out_time_ms=1577281958\n[STDOUT RAW] out_time=00:26:17.281958\n[STDOUT RAW] dup_frames=0\n[STDOUT RAW] drop_frames=0\n[STDOUT RAW] speed= 122x\n[STDOUT RAW] progress=continue\n[STDERR RAW] size=   30720KiB time=00:26:17.28 bitrate= 159.6kbits/s speed= 122x\n[STDOUT RAW] bitrate= 158.7kbits/s\n[STDOUT RAW] total_size=32768000\n[STDOUT RAW] out_time_us=1651633958\n[STDOUT RAW] out_time_ms=1651633958\n[STDOUT RAW] out_time=00:27:31.633958\n[STDOUT RAW] dup_frames=0\n[STDOUT RAW] drop_frames=0\n[STDOUT RAW] speed= 123x\n[STDOUT RAW] progress=continue\n[STDERR RAW] size=   32000KiB time=00:27:31.63 bitrate= 158.7kbits/s speed= 123x\n[STDOUT RAW] bitrate= 159.7kbits/s\n[STDOUT RAW] total_size=34603008\n[STDOUT RAW] out_time_us=1733665958\n[STDOUT RAW] out_time_ms=1733665958\n[STDOUT RAW] out_time=00:28:53.665958\n[STDOUT RAW] dup_frames=0\n[STDOUT RAW] drop_frames=0\n[STDOUT RAW] speed= 125x\n[STDOUT RAW] progress=continue\n[STDERR RAW] size=   33792KiB time=00:28:53.66 bitrate= 159.7kbits/s speed= 125x\n[STDOUT RAW] bitrate= 159.9kbits/s\n[STDOUT RAW] total_size=36175872\n[STDOUT RAW] out_time_us=1809841958\n[STDOUT RAW] out_time_ms=1809841958\n[STDOUT RAW] out_time=00:30:09.841958\n[STDOUT RAW] dup_frames=0\n[STDOUT RAW] drop_frames=0\n[STDOUT RAW] speed= 125x\n[STDOUT RAW] progress=continue\n[STDERR RAW] size=   35328KiB time=00:30:09.84 bitrate= 159.9kbits/s speed= 125x\n[STDOUT RAW] bitrate= 159.7kbits/s\n[STDOUT RAW] total_size=37748736\n[STDOUT RAW] out_time_us=1891369958\n[STDOUT RAW] out_time_ms=1891369958\n[STDOUT RAW] out_time=00:31:31.369958\n[STDOUT RAW] dup_frames=0\n[STDOUT RAW] drop_frames=0\n[STDOUT RAW] speed= 126x\n[STDOUT RAW] progress=continue\n[STDERR RAW] size=   36864KiB time=00:31:31.36 bitrate= 159.7kbits/s speed= 126x\n[STDOUT RAW] bitrate= 160.0kbits/s\n[STDERR RAW] size=   37591KiB time=00:32:04.53 bitrate= 160.0kbits/s speed= 127x\n[STDOUT RAW] total_size=38492684\n[STDOUT RAW] out_time_us=1924537292\n[STDOUT RAW] out_time_ms=1924537292\n[STDOUT RAW] out_time=00:32:04.537292\n[STDOUT RAW] dup_frames=0\n[STDOUT RAW] drop_frames=0\n[STDOUT RAW] speed= 127x\n[STDOUT RAW] progress=end\n[ConversionWorker] STDERR pipe closed signal received.\n[ConversionWorker] Detected 'progress=end' for 高冷 02.wav\n[ConversionWorker] STDOUT pipe closed signal received.\n[ConversionWorker] Process finished and both stream pipes closed. Exiting loop.\n[ConversionWorker] Waiting for reader threads to join...\n[ConversionWorker] FFmpeg process ended. Return code: 0\n[ConversionWorker] Closing FFmpeg log file.\n